<svg xmlns="http://www.w3.org/2000/svg" viewBox="0 0 420 210"><path fill="#212121" d="M349.37,51.74a80.42,80.42,0,0,1,6.77,32.87,81.16,81.16,0,0,1-6.77,33,85.65,85.65,0,0,1-45.86,45.2A85.26,85.26,0,0,1,270,169.45H194.11l17.29-35.75H270a48.69,48.69,0,0,0,19.32-3.89,52.2,52.2,0,0,0,16-10.55,48.47,48.47,0,0,0,10.77-15.55,48.87,48.87,0,0,0,0-38.2A48.52,48.52,0,0,0,305.29,50a52.29,52.29,0,0,0-16-10.55A48.77,48.77,0,0,0,270,35.53H226.15L158.4,169.45,122,97l-36.64,72.4L.06,0H40.7L85.34,88.61l16.21-32L73.12,0h40.64L158.4,88.61,203.26,0H270a85.27,85.27,0,0,1,33.53,6.66,86,86,0,0,1,45.86,45.08ZM383.43,0V169.45h36.45V0Z"/><path fill="#bdbdbd" d="M8.43,201.65l3.4-11h4.48l3.38,11,3.82-11h4.64l-6.7,19.2H18.26l-4.2-13.35L9.89,209.81H6.7L0,190.61H4.64Zm38.53-11v3.82H37.4v4H46V202H37.4v4h9.86v3.79H33.12v-19.2Zm15.21,19.2h-8.4v-19.2h7.47a10.82,10.82,0,0,1,3.37.47,4.83,4.83,0,0,1,2.13,1.26A5,5,0,0,1,68,195.69,3.92,3.92,0,0,1,66.57,199a5,5,0,0,1-.69.48l-.69.32A5,5,0,0,1,68,201.44a4.48,4.48,0,0,1,1.06,3A5.16,5.16,0,0,1,67.72,208Q66.13,209.81,62.18,209.81Zm-4.12-11.42h2a6.88,6.88,0,0,0,2.65-.38,1.62,1.62,0,0,0,.86-1.66,1.72,1.72,0,0,0-.8-1.69,6.31,6.31,0,0,0-2.69-.41H58.06Zm0,7.8H61a6.5,6.5,0,0,0,2.76-.45,1.79,1.79,0,0,0,.92-1.79,1.72,1.72,0,0,0-1-1.76,8.37,8.37,0,0,0-3.12-.43H58.06Zm38.88-13.06a9,9,0,0,1,2.75,7A9.44,9.44,0,0,1,97,207.2q-2.68,2.61-8.17,2.61H82.27v-19.2h6.78Q94.19,190.61,96.94,193.12Zm-3.14,11.41a5.63,5.63,0,0,0,1.58-4.31,5.77,5.77,0,0,0-1.58-4.35,6.75,6.75,0,0,0-4.85-1.52H86.56V206h2.72A6.35,6.35,0,0,0,93.79,204.53Zm26.13-13.92v3.82h-9.56v4H119V202h-8.6v4h9.86v3.79H106.08v-19.2Zm13.9,12.22,4.89-12.22h4.64l-7.72,19.2H132l-7.72-19.2h4.64Zm28.34-12.22v3.82H152.6v4h8.6V202h-8.6v4h9.86v3.79H148.32v-19.2Zm6.81,19.2v-19.2h4.28V206h8.18v3.82Zm33.92-2.65a10.46,10.46,0,0,1-14.34,0,10,10,0,0,1,0-14.14,10.46,10.46,0,0,1,14.34,0,10,10,0,0,1,0,14.14Zm-1.46-7.06a6.28,6.28,0,0,0-1.65-4.38,5.43,5.43,0,0,0-8.1,0,6.63,6.63,0,0,0,0,8.75,5.46,5.46,0,0,0,8.1,0A6.22,6.22,0,0,0,201.43,200.1Zm23.91-7.77a6.54,6.54,0,0,1,2,5.27q0,3.56-2.07,5.2T219,204.45H216.4v5.36h-4.28v-19.2h6.78Q223.32,190.61,225.34,192.33Zm-3.14,7.55a3.69,3.69,0,0,0,.77-2.53,2.68,2.68,0,0,0-1-2.36,5.51,5.51,0,0,0-3.12-.7H216.4v6.45h2.88A3.83,3.83,0,0,0,222.19,199.88Zm25-9.27v3.82h-9.56v4h8.6V202h-8.6v4h9.86v3.79H233.4v-19.2ZM269.62,197q0,4.61-3.65,6l4.86,6.87h-5.27l-4.26-6.12h-3v6.12H254v-19.2h7.28q4.48,0,6.38,1.51T269.62,197Zm-5.16,2.28a2.91,2.91,0,0,0,.8-2.27,2.43,2.43,0,0,0-.82-2.13,5.28,5.28,0,0,0-2.88-.58h-3.21V200h3.13A4.61,4.61,0,0,0,264.46,199.26Zm20.15-8.65h4.28v19.2h-4.28Zm19.83,3.71v15.49h-4.28V194.32h-5.44v-3.71h15.16v3.71ZM328,209.81l-1.79-4.15h-8l-1.79,4.15H311.8l8.29-19.2h4.15l8.29,19.2Zm-5.79-13.48-2.42,5.57h4.81Zm15.27,13.48v-19.2h4.28V206h8.18v3.82Zm18.29-19.2H360v19.2h-4.28Zm25.37,19.2-1.79-4.15h-8l-1.79,4.15h-4.56l8.29-19.2h4.15l8.29,19.2Zm-5.79-13.48-2.42,5.57h4.81Zm28.7-5.71h4.28v19.2H404l-9.15-12v12h-4.28v-19.2h4L404,203Zm11.7,0H420v19.2h-4.28Z"/></svg>
